<?xml version="1.0" encoding="utf-8"?>
<!-- Generator: Adobe Illustrator 23.0.0, SVG Export Plug-In . SVG Version: 6.00 Build 0)  -->
<svg version="1.1" id="图层_1" xmlns="http://www.w3.org/2000/svg" xmlns:xlink="http://www.w3.org/1999/xlink" x="0px" y="0px"
	 viewBox="0 0 100 100" style="enable-background:new 0 0 100 100;" xml:space="preserve">
<style type="text/css">
	.st0{fill:#EDF6FC;}
	.st1{fill:#0A7BE0;}
	.st2{fill:#FFFFFF;}
	.st3{clip-path:url(#SVGID_2_);}
	.st4{fill:#C6E4F4;}
	.st5{fill:#414249;}
	.st6{fill:#53BAF9;}
</style>
<g>
	<g id="XMLID_153_">
		<circle class="st0" cx="50" cy="50" r="50"/>
	</g>
	<g>
		<path class="st1" d="M50,84.8c-17.5,0-31.8-14.2-31.8-31.8S32.5,21.3,50,21.3S81.8,35.5,81.8,53S67.5,84.8,50,84.8z M50,24.8
			c-15.6,0-28.3,12.7-28.3,28.3S34.4,81.3,50,81.3S78.3,68.6,78.3,53S65.6,24.8,50,24.8z"/>
	</g>
	<g>
		<circle class="st2" cx="50" cy="53" r="26"/>
	</g>
	<g>
		<rect x="24.5" y="23.3" transform="matrix(0.7071 -0.7071 0.7071 0.7071 -11.259 27.0427)" class="st1" width="5" height="7.5"/>
	</g>
	<g>
		<defs>
			<circle id="SVGID_1_" cx="50" cy="53" r="26"/>
		</defs>
		<clipPath id="SVGID_2_">
			<use xlink:href="#SVGID_1_"  style="overflow:visible;"/>
		</clipPath>
		<g id="XMLID_214_" class="st3">
			<g id="XMLID_326_">
				<g id="XMLID_380_">
					<g id="XMLID_414_">
						<g id="XMLID_415_">
							<g id="XMLID_416_">
								<rect x="-1.9" y="63.3" class="st4" width="103.2" height="0.2"/>
							</g>
						</g>
					</g>
					<g id="XMLID_411_">
						<g id="XMLID_412_">
							<g id="XMLID_413_">
								<rect x="-1.9" y="66.2" class="st4" width="103.2" height="0.2"/>
							</g>
						</g>
					</g>
					<g id="XMLID_408_">
						<g id="XMLID_409_">
							<g id="XMLID_410_">
								<rect x="-1.9" y="69.2" class="st4" width="103.2" height="0.2"/>
							</g>
						</g>
					</g>
					<g id="XMLID_405_">
						<g id="XMLID_406_">
							<g id="XMLID_407_">
								<rect x="-1.9" y="72.1" class="st4" width="103.2" height="0.2"/>
							</g>
						</g>
					</g>
					<g id="XMLID_402_">
						<g id="XMLID_403_">
							<g id="XMLID_404_">
								<rect x="-1.9" y="75.1" class="st4" width="103.2" height="0.2"/>
							</g>
						</g>
					</g>
					<g id="XMLID_399_">
						<g id="XMLID_400_">
							<g id="XMLID_401_">
								<rect x="-1.9" y="78" class="st4" width="103.2" height="0.2"/>
							</g>
						</g>
					</g>
					<g id="XMLID_396_">
						<g id="XMLID_397_">
							<g id="XMLID_398_">
								<rect x="-1.9" y="81" class="st4" width="103.2" height="0.2"/>
							</g>
						</g>
					</g>
					<g id="XMLID_393_">
						<g id="XMLID_394_">
							<g id="XMLID_395_">
								<rect x="-1.9" y="83.9" class="st4" width="103.2" height="0.2"/>
							</g>
						</g>
					</g>
					<g id="XMLID_390_">
						<g id="XMLID_391_">
							<g id="XMLID_392_">
								<rect x="-1.9" y="86.9" class="st4" width="103.2" height="0.2"/>
							</g>
						</g>
					</g>
					<g id="XMLID_387_">
						<g id="XMLID_388_">
							<g id="XMLID_389_">
								<rect x="-1.9" y="89.8" class="st4" width="103.2" height="0.2"/>
							</g>
						</g>
					</g>
					<g id="XMLID_384_">
						<g id="XMLID_385_">
							<g id="XMLID_386_">
								<rect x="-1.9" y="92.8" class="st4" width="103.2" height="0.2"/>
							</g>
						</g>
					</g>
					<g id="XMLID_381_">
						<g id="XMLID_382_">
							<g id="XMLID_383_">
								<rect x="-1.9" y="95.7" class="st4" width="103.2" height="0.2"/>
							</g>
						</g>
					</g>
				</g>
				<g id="XMLID_346_">
					<g id="XMLID_377_">
						<g id="XMLID_378_">
							<g id="XMLID_379_">
								<rect x="-1.9" y="30.8" class="st4" width="103.2" height="0.2"/>
							</g>
						</g>
					</g>
					<g id="XMLID_374_">
						<g id="XMLID_375_">
							<g id="XMLID_376_">
								<rect x="-1.9" y="33.8" class="st4" width="103.2" height="0.2"/>
							</g>
						</g>
					</g>
					<g id="XMLID_371_">
						<g id="XMLID_372_">
							<g id="XMLID_373_">
								<rect x="-1.9" y="36.7" class="st4" width="103.2" height="0.2"/>
							</g>
						</g>
					</g>
					<g id="XMLID_368_">
						<g id="XMLID_369_">
							<g id="XMLID_370_">
								<rect x="-1.9" y="39.7" class="st4" width="103.2" height="0.2"/>
							</g>
						</g>
					</g>
					<g id="XMLID_365_">
						<g id="XMLID_366_">
							<g id="XMLID_367_">
								<rect x="-1.9" y="42.6" class="st4" width="103.2" height="0.2"/>
							</g>
						</g>
					</g>
					<g id="XMLID_362_">
						<g id="XMLID_363_">
							<g id="XMLID_364_">
								<rect x="-1.9" y="45.6" class="st4" width="103.2" height="0.2"/>
							</g>
						</g>
					</g>
					<g id="XMLID_359_">
						<g id="XMLID_360_">
							<g id="XMLID_361_">
								<rect x="-1.9" y="48.5" class="st4" width="103.2" height="0.2"/>
							</g>
						</g>
					</g>
					<g id="XMLID_356_">
						<g id="XMLID_357_">
							<g id="XMLID_358_">
								<rect x="-1.9" y="51.5" class="st4" width="103.2" height="0.2"/>
							</g>
						</g>
					</g>
					<g id="XMLID_353_">
						<g id="XMLID_354_">
							<g id="XMLID_355_">
								<rect x="-1.9" y="54.4" class="st4" width="103.2" height="0.2"/>
							</g>
						</g>
					</g>
					<g id="XMLID_350_">
						<g id="XMLID_351_">
							<g id="XMLID_352_">
								<rect x="-1.9" y="57.4" class="st4" width="103.2" height="0.2"/>
							</g>
						</g>
					</g>
					<g id="XMLID_347_">
						<g id="XMLID_348_">
							<g id="XMLID_349_">
								<rect x="-1.9" y="60.3" class="st4" width="103.2" height="0.2"/>
							</g>
						</g>
					</g>
				</g>
				<g id="XMLID_327_">
					<g id="XMLID_343_">
						<g id="XMLID_344_">
							<g id="XMLID_345_">
								<rect x="-1.9" y="13.2" class="st4" width="103.2" height="0.2"/>
							</g>
						</g>
					</g>
					<g id="XMLID_340_">
						<g id="XMLID_341_">
							<g id="XMLID_342_">
								<rect x="-1.9" y="16.1" class="st4" width="103.2" height="0.2"/>
							</g>
						</g>
					</g>
					<g id="XMLID_337_">
						<g id="XMLID_338_">
							<g id="XMLID_339_">
								<rect x="-1.9" y="19.1" class="st4" width="103.2" height="0.2"/>
							</g>
						</g>
					</g>
					<g id="XMLID_334_">
						<g id="XMLID_335_">
							<g id="XMLID_336_">
								<rect x="-1.9" y="22" class="st4" width="103.2" height="0.2"/>
							</g>
						</g>
					</g>
					<g id="XMLID_331_">
						<g id="XMLID_332_">
							<g id="XMLID_333_">
								<rect x="-1.9" y="24.9" class="st4" width="103.2" height="0.2"/>
							</g>
						</g>
					</g>
					<g id="XMLID_328_">
						<g id="XMLID_329_">
							<g id="XMLID_330_">
								<rect x="-1.9" y="27.9" class="st4" width="103.2" height="0.2"/>
							</g>
						</g>
					</g>
				</g>
			</g>
			<g id="XMLID_286_">
				<g id="XMLID_323_">
					<g id="XMLID_324_">
						<g id="XMLID_325_">
							<rect x="-2.1" y="13.8" class="st4" width="0.2" height="82"/>
						</g>
					</g>
				</g>
				<g id="XMLID_320_">
					<g id="XMLID_321_">
						<g id="XMLID_322_">
							<rect x="0.9" y="13.8" class="st4" width="0.2" height="82"/>
						</g>
					</g>
				</g>
				<g id="XMLID_317_">
					<g id="XMLID_318_">
						<g id="XMLID_319_">
							<rect x="3.8" y="13.8" class="st4" width="0.2" height="82"/>
						</g>
					</g>
				</g>
				<g id="XMLID_314_">
					<g id="XMLID_315_">
						<g id="XMLID_316_">
							<rect x="6.8" y="13.8" class="st4" width="0.2" height="82"/>
						</g>
					</g>
				</g>
				<g id="XMLID_311_">
					<g id="XMLID_312_">
						<g id="XMLID_313_">
							<rect x="9.7" y="13.8" class="st4" width="0.2" height="82"/>
						</g>
					</g>
				</g>
				<g id="XMLID_308_">
					<g id="XMLID_309_">
						<g id="XMLID_310_">
							<rect x="12.7" y="13.8" class="st4" width="0.2" height="82"/>
						</g>
					</g>
				</g>
				<g id="XMLID_305_">
					<g id="XMLID_306_">
						<g id="XMLID_307_">
							<rect x="15.6" y="13.8" class="st4" width="0.2" height="82"/>
						</g>
					</g>
				</g>
				<g id="XMLID_302_">
					<g id="XMLID_303_">
						<g id="XMLID_304_">
							<rect x="18.6" y="13.8" class="st4" width="0.2" height="82"/>
						</g>
					</g>
				</g>
				<g id="XMLID_299_">
					<g id="XMLID_300_">
						<g id="XMLID_301_">
							<rect x="21.5" y="13.8" class="st4" width="0.2" height="82"/>
						</g>
					</g>
				</g>
				<g id="XMLID_296_">
					<g id="XMLID_297_">
						<g id="XMLID_298_">
							<rect x="24.5" y="13.8" class="st4" width="0.2" height="82"/>
						</g>
					</g>
				</g>
				<g id="XMLID_293_">
					<g id="XMLID_294_">
						<g id="XMLID_295_">
							<rect x="27.4" y="13.8" class="st4" width="0.2" height="82"/>
						</g>
					</g>
				</g>
				<g id="XMLID_290_">
					<g id="XMLID_291_">
						<g id="XMLID_292_">
							<rect x="30.4" y="13.8" class="st4" width="0.2" height="82"/>
						</g>
					</g>
				</g>
				<g id="XMLID_287_">
					<g id="XMLID_288_">
						<g id="XMLID_289_">
							<rect x="33.3" y="13.8" class="st4" width="0.2" height="82"/>
						</g>
					</g>
				</g>
			</g>
			<g id="XMLID_249_">
				<g id="XMLID_283_">
					<g id="XMLID_284_">
						<g id="XMLID_285_">
							<rect x="36.3" y="13.8" class="st4" width="0.2" height="82"/>
						</g>
					</g>
				</g>
				<g id="XMLID_280_">
					<g id="XMLID_281_">
						<g id="XMLID_282_">
							<rect x="39.2" y="13.8" class="st4" width="0.2" height="82"/>
						</g>
					</g>
				</g>
				<g id="XMLID_277_">
					<g id="XMLID_278_">
						<g id="XMLID_279_">
							<rect x="42.2" y="13.8" class="st4" width="0.2" height="82"/>
						</g>
					</g>
				</g>
				<g id="XMLID_274_">
					<g id="XMLID_275_">
						<g id="XMLID_276_">
							<rect x="45.1" y="13.8" class="st4" width="0.2" height="82"/>
						</g>
					</g>
				</g>
				<g id="XMLID_271_">
					<g id="XMLID_272_">
						<g id="XMLID_273_">
							<rect x="48.1" y="13.8" class="st4" width="0.2" height="82"/>
						</g>
					</g>
				</g>
				<g id="XMLID_268_">
					<g id="XMLID_269_">
						<g id="XMLID_270_">
							<rect x="51" y="13.8" class="st4" width="0.2" height="82"/>
						</g>
					</g>
				</g>
				<g id="XMLID_265_">
					<g id="XMLID_266_">
						<g id="XMLID_267_">
							<rect x="54" y="13.8" class="st4" width="0.2" height="82"/>
						</g>
					</g>
				</g>
				<g id="XMLID_262_">
					<g id="XMLID_263_">
						<g id="XMLID_264_">
							<rect x="56.9" y="13.8" class="st4" width="0.2" height="82"/>
						</g>
					</g>
				</g>
				<g id="XMLID_259_">
					<g id="XMLID_260_">
						<g id="XMLID_261_">
							<rect x="59.9" y="13.8" class="st4" width="0.2" height="82"/>
						</g>
					</g>
				</g>
				<g id="XMLID_256_">
					<g id="XMLID_257_">
						<g id="XMLID_258_">
							<rect x="62.8" y="13.8" class="st4" width="0.2" height="82"/>
						</g>
					</g>
				</g>
				<g id="XMLID_253_">
					<g id="XMLID_254_">
						<g id="XMLID_255_">
							<rect x="65.8" y="13.8" class="st4" width="0.2" height="82"/>
						</g>
					</g>
				</g>
				<g id="XMLID_250_">
					<g id="XMLID_251_">
						<g id="XMLID_252_">
							<rect x="68.7" y="13.8" class="st4" width="0.2" height="82"/>
						</g>
					</g>
				</g>
			</g>
			<g id="XMLID_215_">
				<g id="XMLID_246_">
					<g id="XMLID_247_">
						<g id="XMLID_248_">
							<rect x="71.7" y="13.8" class="st4" width="0.2" height="82"/>
						</g>
					</g>
				</g>
				<g id="XMLID_243_">
					<g id="XMLID_244_">
						<g id="XMLID_245_">
							<rect x="74.6" y="13.8" class="st4" width="0.2" height="82"/>
						</g>
					</g>
				</g>
				<g id="XMLID_240_">
					<g id="XMLID_241_">
						<g id="XMLID_242_">
							<rect x="77.6" y="13.8" class="st4" width="0.2" height="82"/>
						</g>
					</g>
				</g>
				<g id="XMLID_237_">
					<g id="XMLID_238_">
						<g id="XMLID_239_">
							<rect x="80.5" y="13.8" class="st4" width="0.2" height="82"/>
						</g>
					</g>
				</g>
				<g id="XMLID_234_">
					<g id="XMLID_235_">
						<g id="XMLID_236_">
							<rect x="83.4" y="13.8" class="st4" width="0.2" height="82"/>
						</g>
					</g>
				</g>
				<g id="XMLID_231_">
					<g id="XMLID_232_">
						<g id="XMLID_233_">
							<rect x="86.4" y="13.8" class="st4" width="0.2" height="82"/>
						</g>
					</g>
				</g>
				<g id="XMLID_228_">
					<g id="XMLID_229_">
						<g id="XMLID_230_">
							<rect x="89.3" y="13.8" class="st4" width="0.2" height="82"/>
						</g>
					</g>
				</g>
				<g id="XMLID_225_">
					<g id="XMLID_226_">
						<g id="XMLID_227_">
							<rect x="92.3" y="13.8" class="st4" width="0.2" height="82"/>
						</g>
					</g>
				</g>
				<g id="XMLID_222_">
					<g id="XMLID_223_">
						<g id="XMLID_224_">
							<rect x="95.2" y="13.8" class="st4" width="0.2" height="82"/>
						</g>
					</g>
				</g>
				<g id="XMLID_219_">
					<g id="XMLID_220_">
						<g id="XMLID_221_">
							<rect x="98.2" y="13.8" class="st4" width="0.2" height="82"/>
						</g>
					</g>
				</g>
				<g id="XMLID_216_">
					<g id="XMLID_217_">
						<g id="XMLID_218_">
							<rect x="101.1" y="13.8" class="st4" width="0.2" height="82"/>
						</g>
					</g>
				</g>
			</g>
		</g>
	</g>
	<g>
		<circle class="st5" cx="50" cy="53" r="6"/>
	</g>
	<g>
		<path class="st6" d="M50,77c-0.6,0-1.2,0-1.8-0.1l0.1-2c0.5,0,1.1,0.1,1.6,0.1l0.3,0l0,2L50,77z M52.4,76.9l-0.2-2
			c0.6-0.1,1.3-0.2,1.9-0.3l0.4,2C53.8,76.7,53.1,76.8,52.4,76.9z M46.1,76.7c-0.7-0.1-1.4-0.3-2-0.4l0.5-1.9
			c0.6,0.2,1.2,0.3,1.9,0.4L46.1,76.7z M56.5,76.1l-0.5-1.9c0.6-0.2,1.2-0.4,1.8-0.6l0.7,1.9C57.8,75.7,57.1,75.9,56.5,76.1z
			 M42.1,75.7c-0.7-0.2-1.3-0.5-1.9-0.8l0.8-1.8c0.6,0.3,1.2,0.5,1.8,0.7L42.1,75.7z M60.4,74.6l-0.9-1.8c0.6-0.3,1.1-0.6,1.7-0.9
			l1,1.7C61.6,74,61,74.3,60.4,74.6z M38.3,74c-0.6-0.3-1.2-0.7-1.8-1.1l1.1-1.7c0.5,0.4,1.1,0.7,1.6,1L38.3,74z M64,72.5l-1.2-1.6
			c0.5-0.4,1-0.8,1.5-1.2l1.3,1.5C65.1,71.7,64.5,72.1,64,72.5z M34.8,71.6c-0.5-0.4-1.1-0.9-1.6-1.4l1.4-1.4
			c0.5,0.4,0.9,0.9,1.4,1.3L34.8,71.6z M67.1,69.8l-1.4-1.4c0.4-0.4,0.9-0.9,1.3-1.4l1.5,1.3C68.1,68.8,67.6,69.3,67.1,69.8z
			 M69.8,66.6l-1.6-1.1c0.4-0.5,0.7-1.1,1-1.6l1.7,1C70.5,65.4,70.2,66,69.8,66.6z M71.8,63L70,62.1c0.3-0.6,0.5-1.2,0.7-1.8
			l1.9,0.7C72.4,61.7,72.1,62.3,71.8,63z M73.2,59l-1.9-0.5c0.2-0.6,0.3-1.2,0.4-1.9l2,0.3C73.6,57.7,73.4,58.4,73.2,59z M73.9,54.9
			l-2-0.2c0-0.6,0.1-1.2,0.1-1.8l0-0.1h2l0,0.1C74,53.6,74,54.3,73.9,54.9z M71.9,51c-0.1-0.6-0.1-1.3-0.3-1.9l2-0.4
			c0.1,0.7,0.2,1.4,0.3,2.1L71.9,51z M71.2,47.2c-0.2-0.6-0.4-1.2-0.6-1.8l1.9-0.7c0.2,0.7,0.5,1.3,0.6,2L71.2,47.2z M69.9,43.6
			c-0.3-0.6-0.6-1.2-0.9-1.7l1.7-1c0.3,0.6,0.7,1.2,1,1.8L69.9,43.6z M68,40.3c-0.4-0.5-0.8-1-1.2-1.5l1.5-1.3
			c0.4,0.5,0.9,1.1,1.3,1.6L68,40.3z M65.5,37.4c-0.4-0.4-0.9-0.9-1.4-1.3l1.3-1.5c0.5,0.4,1.1,0.9,1.5,1.4L65.5,37.4z M62.6,34.9
			c-0.5-0.4-1.1-0.7-1.6-1l1-1.7c0.6,0.3,1.2,0.7,1.8,1.1L62.6,34.9z M59.3,33c-0.6-0.3-1.2-0.5-1.8-0.7l0.7-1.9
			c0.6,0.2,1.3,0.5,1.9,0.8L59.3,33z M55.7,31.7c-0.6-0.2-1.2-0.3-1.9-0.4l0.3-2c0.7,0.1,1.4,0.3,2,0.4L55.7,31.7z M51.9,31.1
			C51.3,31,50.6,31,50,31v-2c0.7,0,1.4,0,2.1,0.1L51.9,31.1z"/>
	</g>
	<g>
		<rect x="33.7" y="57.8" transform="matrix(0.7071 -0.7071 0.7071 0.7071 -29.582 48.0827)" class="st5" width="19.1" height="4"/>
	</g>
	<g>
		<g>
			<circle class="st1" cx="74.2" cy="69.4" r="14.4"/>
		</g>
		<g>
			<path class="st0" d="M74.2,85.7c-9,0-16.4-7.3-16.4-16.4S65.2,53,74.2,53s16.4,7.3,16.4,16.4S83.3,85.7,74.2,85.7z M74.2,56.9
				c-6.9,0-12.5,5.6-12.5,12.5c0,6.9,5.6,12.5,12.5,12.5c6.9,0,12.5-5.6,12.5-12.5C86.8,62.5,81.1,56.9,74.2,56.9z"/>
		</g>
		<g id="XMLID_4_">
			<polygon class="st0" points="72.4,61.5 78.2,61.5 76.2,66.8 81.4,66.8 71,80.3 72,71.2 68,71.2 			"/>
		</g>
	</g>
	<g>
		<rect x="39" y="14" class="st1" width="23" height="4"/>
	</g>
	<g>
		<rect x="45" y="17" class="st1" width="4" height="5"/>
	</g>
	<g>
		<rect x="52" y="17" class="st1" width="4" height="5"/>
	</g>
	<g>
		<rect x="70.2" y="25.6" transform="matrix(0.7072 -0.707 0.707 0.7072 1.7995 60.5064)" class="st1" width="7.5" height="5"/>
	</g>
</g>
</svg>
