<?xml version="1.0" encoding="utf-8"?>
<!-- Generator: Adobe Illustrator 23.0.0, SVG Export Plug-In . SVG Version: 6.00 Build 0)  -->
<svg version="1.1" id="图层_1" xmlns="http://www.w3.org/2000/svg" xmlns:xlink="http://www.w3.org/1999/xlink" x="0px" y="0px"
	 viewBox="0 0 100 100" style="enable-background:new 0 0 100 100;" xml:space="preserve">
<style type="text/css">
	.st0{fill:#EDF6FC;}
	.st1{fill:#0A7BE0;}
	.st2{fill:#FFFFFF;}
	.st3{fill:#53BAF9;}
	.st4{clip-path:url(#SVGID_2_);}
	.st5{fill:#C6E4F4;}
	.st6{fill:#414249;}
</style>
<g id="XMLID_153_">
	<circle class="st0" cx="50" cy="50" r="50"/>
</g>
<g>
	<path class="st1" d="M50.6,87.7L18,68.9V31.2l32.7-18.9l32.7,18.9v37.7L50.6,87.7z M21.5,66.9l29.2,16.8l29.2-16.8V33.2L50.6,16.4
		L21.5,33.2V66.9z"/>
</g>
<g>
	<polygon class="st2" points="24.7,35.1 24.7,65 50.6,79.9 76.5,65 76.5,35.1 50.6,20.1 	"/>
	<path class="st3" d="M51.2,80.5l-0.8-1.3l1.7-1l0.8,1.3L51.2,80.5z M48.7,79.7l-1.7-1l0.8-1.3l1.7,1L48.7,79.7z M54.6,78.5
		l-0.8-1.3l1.7-1l0.8,1.3L54.6,78.5z M45.2,77.7l-1.7-1l0.8-1.3l1.7,1L45.2,77.7z M58.1,76.5l-0.8-1.3l1.7-1l0.8,1.3L58.1,76.5z
		 M41.8,75.7l-1.7-1l0.8-1.3l1.7,1L41.8,75.7z M61.6,74.5l-0.8-1.3l1.7-1l0.8,1.3L61.6,74.5z M38.3,73.7l-1.7-1l0.8-1.3l1.7,1
		L38.3,73.7z M65,72.5l-0.8-1.3l1.7-1l0.8,1.3L65,72.5z M34.8,71.7l-1.7-1l0.8-1.3l1.7,1L34.8,71.7z M68.5,70.5l-0.8-1.3l1.7-1
		l0.8,1.3L68.5,70.5z M31.4,69.7l-1.7-1l0.8-1.3l1.7,1L31.4,69.7z M72,68.5l-0.8-1.3l1.7-1l0.8,1.3L72,68.5z M27.9,67.7l-1.7-1
		l0.8-1.3l1.7,1L27.9,67.7z M75.4,66.5l-0.8-1.3l1.5-0.9l0.2,0.4h0.9v0.7L75.4,66.5z M24.4,65.7l-0.4-0.2L24,65v-1.9h1.5V65h-0.7
		L24.4,65.7z M77.3,62.7h-1.5v-2h1.5V62.7z M25.5,61.1H24v-2h1.5V61.1z M77.3,58.7h-1.5v-2h1.5V58.7z M25.5,57.1H24v-2h1.5V57.1z
		 M77.3,54.7h-1.5v-2h1.5V54.7z M25.5,53.1H24v-2h1.5V53.1z M77.3,50.7h-1.5v-2h1.5V50.7z M25.5,49.1H24v-2h1.5V49.1z M77.3,46.7
		h-1.5v-2h1.5V46.7z M25.5,45.1H24v-2h1.5V45.1z M77.3,42.7h-1.5v-2h1.5V42.7z M25.5,41.1H24v-2h1.5V41.1z M77.3,38.7h-1.5v-2h1.5
		V38.7z M25.5,37.1H24v-2h1.5V37.1z M75.8,35.5l-1.7-1l0.8-1.3l1.7,1L75.8,35.5z M26.3,35l-0.8-1.3l1.7-1l0.8,1.3L26.3,35z
		 M72.4,33.5l-1.7-1l0.8-1.3l1.7,1L72.4,33.5z M29.8,33l-0.8-1.3l1.7-1l0.8,1.3L29.8,33z M68.9,31.5l-1.7-1l0.8-1.3l1.7,1L68.9,31.5
		z M33.3,31l-0.8-1.3l1.7-1L35,30L33.3,31z M65.4,29.5l-1.7-1l0.8-1.3l1.7,1L65.4,29.5z M36.7,29L36,27.7l1.7-1l0.8,1.3L36.7,29z
		 M62,27.5l-1.7-1l0.8-1.3l1.7,1L62,27.5z M40.2,27l-0.8-1.3l1.7-1l0.8,1.3L40.2,27z M58.5,25.5l-1.7-1l0.8-1.3l1.7,1L58.5,25.5z
		 M43.7,25l-0.8-1.3l1.7-1l0.8,1.3L43.7,25z M55,23.5l-1.7-1l0.8-1.3l1.7,1L55,23.5z M47.1,23l-0.8-1.3l1.7-1l0.8,1.3L47.1,23z
		 M51.6,21.5L50.6,21l0,0l0-0.1l-0.3-0.2l0.1-0.2l-0.5-0.9l0.8-0.5l1.7,1L51.6,21.5z"/>
</g>
<g id="XMLID_1217_">
	<defs>
		<polygon id="SVGID_1_" points="75.5,64.4 50.6,78.8 25.7,64.4 25.7,35.6 50.6,21.3 75.5,35.6 		"/>
	</defs>
	<clipPath id="SVGID_2_">
		<use xlink:href="#SVGID_1_"  style="overflow:visible;"/>
	</clipPath>
	<g id="XMLID_1220_" class="st4">
		<g id="XMLID_2097_">
			<g id="XMLID_2151_">
				<g id="XMLID_2185_">
					<g id="XMLID_2186_">
						<g id="XMLID_2187_">
							<rect x="-0.9" y="60.3" class="st5" width="103.2" height="0.2"/>
						</g>
					</g>
				</g>
				<g id="XMLID_2182_">
					<g id="XMLID_2183_">
						<g id="XMLID_2184_">
							<rect x="-0.9" y="63.2" class="st5" width="103.2" height="0.2"/>
						</g>
					</g>
				</g>
				<g id="XMLID_2179_">
					<g id="XMLID_2180_">
						<g id="XMLID_2181_">
							<rect x="-0.9" y="66.2" class="st5" width="103.2" height="0.2"/>
						</g>
					</g>
				</g>
				<g id="XMLID_2176_">
					<g id="XMLID_2177_">
						<g id="XMLID_2178_">
							<rect x="-0.9" y="69.1" class="st5" width="103.2" height="0.2"/>
						</g>
					</g>
				</g>
				<g id="XMLID_2173_">
					<g id="XMLID_2174_">
						<g id="XMLID_2175_">
							<rect x="-0.9" y="72.1" class="st5" width="103.2" height="0.2"/>
						</g>
					</g>
				</g>
				<g id="XMLID_2170_">
					<g id="XMLID_2171_">
						<g id="XMLID_2172_">
							<rect x="-0.9" y="75" class="st5" width="103.2" height="0.2"/>
						</g>
					</g>
				</g>
				<g id="XMLID_2167_">
					<g id="XMLID_2168_">
						<g id="XMLID_2169_">
							<rect x="-0.9" y="78" class="st5" width="103.2" height="0.2"/>
						</g>
					</g>
				</g>
				<g id="XMLID_2164_">
					<g id="XMLID_2165_">
						<g id="XMLID_2166_">
							<rect x="-0.9" y="80.9" class="st5" width="103.2" height="0.2"/>
						</g>
					</g>
				</g>
				<g id="XMLID_2161_">
					<g id="XMLID_2162_">
						<g id="XMLID_2163_">
							<rect x="-0.9" y="83.9" class="st5" width="103.2" height="0.2"/>
						</g>
					</g>
				</g>
				<g id="XMLID_2158_">
					<g id="XMLID_2159_">
						<g id="XMLID_2160_">
							<rect x="-0.9" y="86.8" class="st5" width="103.2" height="0.2"/>
						</g>
					</g>
				</g>
				<g id="XMLID_2155_">
					<g id="XMLID_2156_">
						<g id="XMLID_2157_">
							<rect x="-0.9" y="89.8" class="st5" width="103.2" height="0.2"/>
						</g>
					</g>
				</g>
				<g id="XMLID_2152_">
					<g id="XMLID_2153_">
						<g id="XMLID_2154_">
							<rect x="-0.9" y="92.7" class="st5" width="103.2" height="0.2"/>
						</g>
					</g>
				</g>
			</g>
			<g id="XMLID_2117_">
				<g id="XMLID_2148_">
					<g id="XMLID_2149_">
						<g id="XMLID_2150_">
							<rect x="-0.9" y="27.8" class="st5" width="103.2" height="0.2"/>
						</g>
					</g>
				</g>
				<g id="XMLID_2145_">
					<g id="XMLID_2146_">
						<g id="XMLID_2147_">
							<rect x="-0.9" y="30.8" class="st5" width="103.2" height="0.2"/>
						</g>
					</g>
				</g>
				<g id="XMLID_2142_">
					<g id="XMLID_2143_">
						<g id="XMLID_2144_">
							<rect x="-0.9" y="33.7" class="st5" width="103.2" height="0.2"/>
						</g>
					</g>
				</g>
				<g id="XMLID_2139_">
					<g id="XMLID_2140_">
						<g id="XMLID_2141_">
							<rect x="-0.9" y="36.7" class="st5" width="103.2" height="0.2"/>
						</g>
					</g>
				</g>
				<g id="XMLID_2136_">
					<g id="XMLID_2137_">
						<g id="XMLID_2138_">
							<rect x="-0.9" y="39.6" class="st5" width="103.2" height="0.2"/>
						</g>
					</g>
				</g>
				<g id="XMLID_2133_">
					<g id="XMLID_2134_">
						<g id="XMLID_2135_">
							<rect x="-0.9" y="42.6" class="st5" width="103.2" height="0.2"/>
						</g>
					</g>
				</g>
				<g id="XMLID_2130_">
					<g id="XMLID_2131_">
						<g id="XMLID_2132_">
							<rect x="-0.9" y="45.5" class="st5" width="103.2" height="0.2"/>
						</g>
					</g>
				</g>
				<g id="XMLID_2127_">
					<g id="XMLID_2128_">
						<g id="XMLID_2129_">
							<rect x="-0.9" y="48.5" class="st5" width="103.2" height="0.2"/>
						</g>
					</g>
				</g>
				<g id="XMLID_2124_">
					<g id="XMLID_2125_">
						<g id="XMLID_2126_">
							<rect x="-0.9" y="51.4" class="st5" width="103.2" height="0.2"/>
						</g>
					</g>
				</g>
				<g id="XMLID_2121_">
					<g id="XMLID_2122_">
						<g id="XMLID_2123_">
							<rect x="-0.9" y="54.4" class="st5" width="103.2" height="0.2"/>
						</g>
					</g>
				</g>
				<g id="XMLID_2118_">
					<g id="XMLID_2119_">
						<g id="XMLID_2120_">
							<rect x="-0.9" y="57.3" class="st5" width="103.2" height="0.2"/>
						</g>
					</g>
				</g>
			</g>
			<g id="XMLID_2098_">
				<g id="XMLID_2114_">
					<g id="XMLID_2115_">
						<g id="XMLID_2116_">
							<rect x="-0.9" y="10.2" class="st5" width="103.2" height="0.2"/>
						</g>
					</g>
				</g>
				<g id="XMLID_2111_">
					<g id="XMLID_2112_">
						<g id="XMLID_2113_">
							<rect x="-0.9" y="13.1" class="st5" width="103.2" height="0.2"/>
						</g>
					</g>
				</g>
				<g id="XMLID_2108_">
					<g id="XMLID_2109_">
						<g id="XMLID_2110_">
							<rect x="-0.9" y="16.1" class="st5" width="103.2" height="0.2"/>
						</g>
					</g>
				</g>
				<g id="XMLID_2105_">
					<g id="XMLID_2106_">
						<g id="XMLID_2107_">
							<rect x="-0.9" y="19" class="st5" width="103.2" height="0.2"/>
						</g>
					</g>
				</g>
				<g id="XMLID_2102_">
					<g id="XMLID_2103_">
						<g id="XMLID_2104_">
							<rect x="-0.9" y="21.9" class="st5" width="103.2" height="0.2"/>
						</g>
					</g>
				</g>
				<g id="XMLID_2099_">
					<g id="XMLID_2100_">
						<g id="XMLID_2101_">
							<rect x="-0.9" y="24.9" class="st5" width="103.2" height="0.2"/>
						</g>
					</g>
				</g>
			</g>
		</g>
		<g id="XMLID_2057_">
			<g id="XMLID_2094_">
				<g id="XMLID_2095_">
					<g id="XMLID_2096_">
						<rect x="-1.1" y="10.8" class="st5" width="0.2" height="82"/>
					</g>
				</g>
			</g>
			<g id="XMLID_2091_">
				<g id="XMLID_2092_">
					<g id="XMLID_2093_">
						<rect x="1.9" y="10.8" class="st5" width="0.2" height="82"/>
					</g>
				</g>
			</g>
			<g id="XMLID_2088_">
				<g id="XMLID_2089_">
					<g id="XMLID_2090_">
						<rect x="4.8" y="10.8" class="st5" width="0.2" height="82"/>
					</g>
				</g>
			</g>
			<g id="XMLID_2085_">
				<g id="XMLID_2086_">
					<g id="XMLID_2087_">
						<rect x="7.8" y="10.8" class="st5" width="0.2" height="82"/>
					</g>
				</g>
			</g>
			<g id="XMLID_2082_">
				<g id="XMLID_2083_">
					<g id="XMLID_2084_">
						<rect x="10.7" y="10.8" class="st5" width="0.2" height="82"/>
					</g>
				</g>
			</g>
			<g id="XMLID_2079_">
				<g id="XMLID_2080_">
					<g id="XMLID_2081_">
						<rect x="13.7" y="10.8" class="st5" width="0.2" height="82"/>
					</g>
				</g>
			</g>
			<g id="XMLID_2076_">
				<g id="XMLID_2077_">
					<g id="XMLID_2078_">
						<rect x="16.6" y="10.8" class="st5" width="0.2" height="82"/>
					</g>
				</g>
			</g>
			<g id="XMLID_2073_">
				<g id="XMLID_2074_">
					<g id="XMLID_2075_">
						<rect x="19.6" y="10.8" class="st5" width="0.2" height="82"/>
					</g>
				</g>
			</g>
			<g id="XMLID_2070_">
				<g id="XMLID_2071_">
					<g id="XMLID_2072_">
						<rect x="22.5" y="10.8" class="st5" width="0.2" height="82"/>
					</g>
				</g>
			</g>
			<g id="XMLID_2067_">
				<g id="XMLID_2068_">
					<g id="XMLID_2069_">
						<rect x="25.5" y="10.8" class="st5" width="0.2" height="82"/>
					</g>
				</g>
			</g>
			<g id="XMLID_2064_">
				<g id="XMLID_2065_">
					<g id="XMLID_2066_">
						<rect x="28.4" y="10.8" class="st5" width="0.2" height="82"/>
					</g>
				</g>
			</g>
			<g id="XMLID_2061_">
				<g id="XMLID_2062_">
					<g id="XMLID_2063_">
						<rect x="31.4" y="10.8" class="st5" width="0.2" height="82"/>
					</g>
				</g>
			</g>
			<g id="XMLID_2058_">
				<g id="XMLID_2059_">
					<g id="XMLID_2060_">
						<rect x="34.3" y="10.8" class="st5" width="0.2" height="82"/>
					</g>
				</g>
			</g>
		</g>
		<g id="XMLID_1944_">
			<g id="XMLID_2049_">
				<g id="XMLID_2055_">
					<g id="XMLID_2056_">
						<rect x="37.3" y="10.8" class="st5" width="0.2" height="82"/>
					</g>
				</g>
			</g>
			<g id="XMLID_1976_">
				<g id="XMLID_2047_">
					<g id="XMLID_2048_">
						<rect x="40.2" y="10.8" class="st5" width="0.2" height="82"/>
					</g>
				</g>
			</g>
			<g id="XMLID_1973_">
				<g id="XMLID_1974_">
					<g id="XMLID_1975_">
						<rect x="43.2" y="10.8" class="st5" width="0.2" height="82"/>
					</g>
				</g>
			</g>
			<g id="XMLID_1970_">
				<g id="XMLID_1971_">
					<g id="XMLID_1972_">
						<rect x="46.1" y="10.8" class="st5" width="0.2" height="82"/>
					</g>
				</g>
			</g>
			<g id="XMLID_1967_">
				<g id="XMLID_1968_">
					<g id="XMLID_1969_">
						<rect x="49.1" y="10.8" class="st5" width="0.2" height="82"/>
					</g>
				</g>
			</g>
			<g id="XMLID_1964_">
				<g id="XMLID_1965_">
					<g id="XMLID_1966_">
						<rect x="52" y="10.8" class="st5" width="0.2" height="82"/>
					</g>
				</g>
			</g>
			<g id="XMLID_1961_">
				<g id="XMLID_1962_">
					<g id="XMLID_1963_">
						<rect x="55" y="10.8" class="st5" width="0.2" height="82"/>
					</g>
				</g>
			</g>
			<g id="XMLID_1958_">
				<g id="XMLID_1959_">
					<g id="XMLID_1960_">
						<rect x="57.9" y="10.8" class="st5" width="0.2" height="82"/>
					</g>
				</g>
			</g>
			<g id="XMLID_1954_">
				<g id="XMLID_1955_">
					<g id="XMLID_1957_">
						<rect x="60.9" y="10.8" class="st5" width="0.2" height="82"/>
					</g>
				</g>
			</g>
			<g id="XMLID_1951_">
				<g id="XMLID_1952_">
					<g id="XMLID_1953_">
						<rect x="63.8" y="10.8" class="st5" width="0.2" height="82"/>
					</g>
				</g>
			</g>
			<g id="XMLID_1948_">
				<g id="XMLID_1949_">
					<g id="XMLID_1950_">
						<rect x="66.8" y="10.8" class="st5" width="0.2" height="82"/>
					</g>
				</g>
			</g>
			<g id="XMLID_1945_">
				<g id="XMLID_1946_">
					<g id="XMLID_1947_">
						<rect x="69.7" y="10.8" class="st5" width="0.2" height="82"/>
					</g>
				</g>
			</g>
		</g>
		<g id="XMLID_1221_">
			<g id="XMLID_1941_">
				<g id="XMLID_1942_">
					<g id="XMLID_1943_">
						<rect x="72.7" y="10.8" class="st5" width="0.2" height="82"/>
					</g>
				</g>
			</g>
			<g id="XMLID_1938_">
				<g id="XMLID_1939_">
					<g id="XMLID_1940_">
						<rect x="75.6" y="10.8" class="st5" width="0.2" height="82"/>
					</g>
				</g>
			</g>
			<g id="XMLID_1935_">
				<g id="XMLID_1936_">
					<g id="XMLID_1937_">
						<rect x="78.6" y="10.8" class="st5" width="0.2" height="82"/>
					</g>
				</g>
			</g>
			<g id="XMLID_1932_">
				<g id="XMLID_1933_">
					<g id="XMLID_1934_">
						<rect x="81.5" y="10.8" class="st5" width="0.2" height="82"/>
					</g>
				</g>
			</g>
			<g id="XMLID_1929_">
				<g id="XMLID_1930_">
					<g id="XMLID_1931_">
						<rect x="84.4" y="10.8" class="st5" width="0.2" height="82"/>
					</g>
				</g>
			</g>
			<g id="XMLID_1926_">
				<g id="XMLID_1927_">
					<g id="XMLID_1928_">
						<rect x="87.4" y="10.8" class="st5" width="0.2" height="82"/>
					</g>
				</g>
			</g>
			<g id="XMLID_1923_">
				<g id="XMLID_1924_">
					<g id="XMLID_1925_">
						<rect x="90.3" y="10.8" class="st5" width="0.2" height="82"/>
					</g>
				</g>
			</g>
			<g id="XMLID_1920_">
				<g id="XMLID_1921_">
					<g id="XMLID_1922_">
						<rect x="93.3" y="10.8" class="st5" width="0.2" height="82"/>
					</g>
				</g>
			</g>
			<g id="XMLID_1917_">
				<g id="XMLID_1918_">
					<g id="XMLID_1919_">
						<rect x="96.2" y="10.8" class="st5" width="0.2" height="82"/>
					</g>
				</g>
			</g>
			<g id="XMLID_1914_">
				<g id="XMLID_1915_">
					<g id="XMLID_1916_">
						<rect x="99.2" y="10.8" class="st5" width="0.2" height="82"/>
					</g>
				</g>
			</g>
			<g id="XMLID_1222_">
				<g id="XMLID_1912_">
					<g id="XMLID_1913_">
						<rect x="102.1" y="10.8" class="st5" width="0.2" height="82"/>
					</g>
				</g>
			</g>
		</g>
	</g>
</g>
<g>
	<g>
		<g>
			<path class="st6" d="M30.7,50.9v-2.7l9.8-6.6v2.9l-7.8,5.1l7.8,5.1v2.9L30.7,50.9z"/>
		</g>
	</g>
	<g>
		<g>
			<path class="st6" d="M59.4,57.5v-2.9l7.8-5.1l-7.8-5.1v-2.9l9.8,6.6v2.7L59.4,57.5z"/>
		</g>
	</g>
	<g>
		<g>
			<path class="st6" d="M49.5,40.8h2.5l-4.5,18.5h-2.5L49.5,40.8z"/>
		</g>
	</g>
</g>
<g id="XMLID_5_">
	<g>
		<circle class="st1" cx="76.2" cy="68.4" r="11.2"/>
	</g>
	<g>
		<path class="st0" d="M76.2,81.1c-7,0-12.7-5.7-12.7-12.7s5.7-12.7,12.7-12.7S89,61.4,89,68.4S83.3,81.1,76.2,81.1z M76.2,58.6
			c-5.4,0-9.7,4.4-9.7,9.7c0,5.4,4.4,9.7,9.7,9.7c5.4,0,9.7-4.4,9.7-9.7C86,63,81.6,58.6,76.2,58.6z"/>
	</g>
</g>
<g id="XMLID_4_">
	<polygon class="st2" points="78,68.4 78,63.4 74,63.4 74,68.4 71.4,68.4 76.1,74.3 80.8,68.4 	"/>
</g>
</svg>
