<?xml version="1.0" encoding="utf-8"?>
<!-- Generator: Adobe Illustrator 23.0.0, SVG Export Plug-In . SVG Version: 6.00 Build 0)  -->
<svg version="1.1" id="图层_1" xmlns="http://www.w3.org/2000/svg" xmlns:xlink="http://www.w3.org/1999/xlink" x="0px" y="0px"
	 viewBox="0 0 100 100" style="enable-background:new 0 0 100 100;" xml:space="preserve">
<style type="text/css">
	.st0{fill:#EDF6FC;}
	.st1{fill:#FFFFFF;}
	.st2{fill:#0A7BE0;}
	.st3{fill:#53BAF9;}
	.st4{fill:#414249;}
	.st5{fill:#C6E4F4;}
</style>
<g id="XMLID_153_">
	<circle class="st0" cx="50" cy="50" r="50"/>
</g>
<g>
	<rect x="23.6" y="24" class="st1" width="21.4" height="21.4"/>
	<path class="st2" d="M46.8,47.2H21.9V22.3h24.9V47.2z M25.4,43.7h17.9V25.8H25.4V43.7z"/>
</g>
<g>
	<rect x="51.4" y="24" class="st1" width="21.4" height="21.4"/>
	<path class="st2" d="M74.6,47.2H49.7V22.3h24.9V47.2z M53.2,43.7h17.9V25.8H53.2V43.7z"/>
</g>
<g>
	<rect x="23.6" y="52.6" class="st1" width="21.4" height="21.4"/>
	<path class="st2" d="M46.8,75.7H21.9V50.8h24.9V75.7z M25.4,72.2h17.9V54.3H25.4V72.2z"/>
</g>
<g>
	<rect x="51.4" y="52.6" class="st3" width="21.4" height="21.4"/>
</g>
<g>
	<rect x="51.4" y="52.6" class="st3" width="21.4" height="21.4"/>
</g>
<g>
	<path class="st3" d="M76.2,78.5H51.4c-0.6,0-1-0.4-1-1s0.4-1,1-1h23.8v-24c0-0.6,0.4-1,1-1s1,0.4,1,1v25
		C77.2,78.1,76.8,78.5,76.2,78.5z"/>
</g>
<g>
	<g>
		<path class="st0" d="M74.1,83.4c-0.4,0-0.7,0-1.1-0.1l-6.4-1.7c-2-0.5-3.4-2.4-3.3-4.5l0-0.1l0-0.1c0.1-0.9,0.4-1.7,1-2.3
			l-2.7-2.7c-1.2-1.2-1.6-3.1-0.9-4.7c0.7-1.6,2.2-2.6,4-2.6c1.2,0,2.2,0.5,3.1,1.3l1.4,1.4l2.3-2c0.8-0.6,1.6-0.9,2.6-0.9
			c1,0,2,0.4,2.8,1.2l5.5,5.5c1.6,1.7,1.6,4.4,0,6l-5.1,5.1C76.4,83,75.2,83.4,74.1,83.4z"/>
	</g>
	<g>
		<path class="st4" d="M80.9,75.7l-5.1,5.1c-0.6,0.6-1.4,0.8-2.2,0.6l-6.4-1.7c-1.1-0.3-1.9-1.4-1.8-2.5l0-0.1
			c0.1-1.1,1.1-2,2.2-2.1l-4.4-4.4c-0.7-0.7-0.9-1.7-0.5-2.6c0.4-0.9,1.2-1.4,2.2-1.4c0.6,0,1.2,0.3,1.7,0.7l2.7,2.7l3.7-3.2
			c0.8-0.7,2-0.6,2.7,0.1l5.4,5.5C81.8,73.3,81.8,74.8,80.9,75.7L80.9,75.7z M66.7,77.2"/>
	</g>
</g>
<g>
	<path class="st5" d="M26.1,25.8v0.9h-0.8v0.2h0.8v2.8h-0.8v0.2h0.8v2.8h-0.8V33h0.8v2.8h-0.8V36h0.8v2.8h-0.8v0.2h0.8v2.8h-0.8v0.2
		h0.8v1.5h0.2v-1.5h2.8v1.5h0.2v-1.5h2.8v1.5h0.2v-1.5h2.8v1.5h0.2v-1.5h2.8v1.5h0.2v-1.5h2.8v1.5h0.2v-1.5h1.6v-0.2h-1.6v-2.8h1.6
		v-0.2h-1.6V36h1.6v-0.2h-1.6V33h1.6v-0.2h-1.6v-2.8h1.6v-0.2h-1.6v-2.8h1.6v-0.2h-1.6v-0.9h-0.2v0.9h-2.8v-0.9h-0.2v0.9h-2.8v-0.9
		h-0.2v0.9h-2.8v-0.9h-0.2v0.9h-2.8v-0.9h-0.2v0.9h-2.8v-0.9H26.1z M38.5,26.9h2.8v2.8h-2.8V26.9z M38.5,29.9h2.8v2.8h-2.8V29.9z
		 M38.5,33h2.8v2.8h-2.8V33z M38.5,36h2.8v2.8h-2.8V36z M38.5,39.1h2.8v2.8h-2.8V39.1z M35.5,26.9h2.8v2.8h-2.8V26.9z M35.5,29.9
		h2.8v2.8h-2.8V29.9z M35.5,33h2.8v2.8h-2.8V33z M35.5,36h2.8v2.8h-2.8V36z M35.5,39.1h2.8v2.8h-2.8V39.1z M32.5,26.9h2.8v2.8h-2.8
		V26.9z M32.5,29.9h2.8v2.8h-2.8V29.9z M32.5,33h2.8v2.8h-2.8V33z M32.5,36h2.8v2.8h-2.8V36z M32.5,39.1h2.8v2.8h-2.8V39.1z
		 M29.4,26.9h2.8v2.8h-2.8V26.9z M29.4,29.9h2.8v2.8h-2.8V29.9z M29.4,33h2.8v2.8h-2.8V33z M29.4,36h2.8v2.8h-2.8V36z M29.4,39.1
		h2.8v2.8h-2.8V39.1z M29.2,41.9h-2.8v-2.8h2.8V41.9z M29.2,38.9h-2.8V36h2.8V38.9z M29.2,35.8h-2.8V33h2.8V35.8z M29.2,32.7h-2.8
		v-2.8h2.8V32.7z M29.2,26.9v2.8h-2.8v-2.8H29.2z"/>
</g>
<g>
	<path class="st5" d="M26.1,54.3v0.9h-0.8v0.2h0.8v2.8h-0.8v0.2h0.8v2.8h-0.8v0.2h0.8v2.8h-0.8v0.2h0.8v2.8h-0.8v0.2h0.8v2.8h-0.8
		v0.2h0.8v1.5h0.2v-1.5h2.8v1.5h0.2v-1.5h2.8v1.5h0.2v-1.5h2.8v1.5h0.2v-1.5h2.8v1.5h0.2v-1.5h2.8v1.5h0.2v-1.5h1.6v-0.2h-1.6v-2.8
		h1.6v-0.2h-1.6v-2.8h1.6v-0.2h-1.6v-2.8h1.6v-0.2h-1.6v-2.8h1.6v-0.2h-1.6v-2.8h1.6v-0.2h-1.6v-0.9h-0.2v0.9h-2.8v-0.9h-0.2v0.9
		h-2.8v-0.9h-0.2v0.9h-2.8v-0.9h-0.2v0.9h-2.8v-0.9h-0.2v0.9h-2.8v-0.9H26.1z M38.5,55.4h2.8v2.8h-2.8V55.4z M38.5,58.5h2.8v2.8
		h-2.8V58.5z M38.5,61.5h2.8v2.8h-2.8V61.5z M38.5,64.6h2.8v2.8h-2.8V64.6z M38.5,67.6h2.8v2.8h-2.8V67.6z M35.5,55.4h2.8v2.8h-2.8
		V55.4z M35.5,58.5h2.8v2.8h-2.8V58.5z M35.5,61.5h2.8v2.8h-2.8V61.5z M35.5,64.6h2.8v2.8h-2.8V64.6z M35.5,67.6h2.8v2.8h-2.8V67.6z
		 M32.5,55.4h2.8v2.8h-2.8V55.4z M32.5,58.5h2.8v2.8h-2.8V58.5z M32.5,61.5h2.8v2.8h-2.8V61.5z M32.5,64.6h2.8v2.8h-2.8V64.6z
		 M32.5,67.6h2.8v2.8h-2.8V67.6z M29.4,55.4h2.8v2.8h-2.8V55.4z M29.4,58.5h2.8v2.8h-2.8V58.5z M29.4,61.5h2.8v2.8h-2.8V61.5z
		 M29.4,64.6h2.8v2.8h-2.8V64.6z M29.4,67.6h2.8v2.8h-2.8V67.6z M29.2,70.4h-2.8v-2.8h2.8V70.4z M29.2,67.4h-2.8v-2.8h2.8V67.4z
		 M29.2,64.3h-2.8v-2.8h2.8V64.3z M29.2,61.3h-2.8v-2.8h2.8V61.3z M29.2,55.4v2.8h-2.8v-2.8H29.2z"/>
</g>
<g>
	<path class="st5" d="M54,25.8v0.9h-0.8v0.2H54v2.8h-0.8v0.2H54v2.8h-0.8V33H54v2.8h-0.8V36H54v2.8h-0.8v0.2H54v2.8h-0.8v0.2H54v1.5
		h0.2v-1.5H57v1.5h0.2v-1.5h2.8v1.5h0.2v-1.5h2.8v1.5h0.2v-1.5h2.8v1.5h0.2v-1.5h2.8v1.5h0.2v-1.5H71v-0.2h-1.6v-2.8H71v-0.2h-1.6
		V36H71v-0.2h-1.6V33H71v-0.2h-1.6v-2.8H71v-0.2h-1.6v-2.8H71v-0.2h-1.6v-0.9h-0.2v0.9h-2.8v-0.9h-0.2v0.9h-2.8v-0.9h-0.2v0.9h-2.8
		v-0.9h-0.2v0.9h-2.8v-0.9H57v0.9h-2.8v-0.9H54z M66.4,26.9h2.8v2.8h-2.8V26.9z M66.4,29.9h2.8v2.8h-2.8V29.9z M66.4,33h2.8v2.8
		h-2.8V33z M66.4,36h2.8v2.8h-2.8V36z M66.4,39.1h2.8v2.8h-2.8V39.1z M63.3,26.9h2.8v2.8h-2.8V26.9z M63.3,29.9h2.8v2.8h-2.8V29.9z
		 M63.3,33h2.8v2.8h-2.8V33z M63.3,36h2.8v2.8h-2.8V36z M63.3,39.1h2.8v2.8h-2.8V39.1z M60.3,26.9h2.8v2.8h-2.8V26.9z M60.3,29.9
		h2.8v2.8h-2.8V29.9z M60.3,33h2.8v2.8h-2.8V33z M60.3,36h2.8v2.8h-2.8V36z M60.3,39.1h2.8v2.8h-2.8V39.1z M57.3,26.9h2.8v2.8h-2.8
		V26.9z M57.3,29.9h2.8v2.8h-2.8V29.9z M57.3,33h2.8v2.8h-2.8V33z M57.3,36h2.8v2.8h-2.8V36z M57.3,39.1h2.8v2.8h-2.8V39.1z
		 M57,41.9h-2.8v-2.8H57V41.9z M57,38.9h-2.8V36H57V38.9z M57,35.8h-2.8V33H57V35.8z M57,32.7h-2.8v-2.8H57V32.7z M57,26.9v2.8h-2.8
		v-2.8H57z"/>
</g>
</svg>
